<svg width="51" height="15" viewBox="0 0 51 15" fill="none" xmlns="http://www.w3.org/2000/svg">
<path d="M3.332 11V2.166H0.406V1.2H7.434V2.166H4.508V11H3.332ZM8.85872 14.08L10.5807 10.328H10.1747L7.41672 4.056H8.69072L10.9867 9.46L13.4227 4.056H14.6407L10.0907 14.08H8.85872ZM15.882 14.08V4.056H16.946L17.058 5.204C17.282 4.868 17.5993 4.56467 18.01 4.294C18.43 4.02333 18.962 3.888 19.606 3.888C20.2967 3.888 20.8987 4.04667 21.412 4.364C21.9253 4.68133 22.322 5.11533 22.602 5.666C22.8913 6.21667 23.036 6.842 23.036 7.542C23.036 8.242 22.8913 8.86733 22.602 9.418C22.322 9.95933 21.9207 10.3887 21.398 10.706C20.8847 11.014 20.2827 11.168 19.592 11.168C19.0227 11.168 18.514 11.0513 18.066 10.818C17.6273 10.5847 17.2913 10.258 17.058 9.838V14.08H15.882ZM19.466 10.146C19.9327 10.146 20.3433 10.0387 20.698 9.824C21.0527 9.6 21.3327 9.292 21.538 8.9C21.7433 8.508 21.846 8.05067 21.846 7.528C21.846 7.00533 21.7433 6.548 21.538 6.156C21.3327 5.764 21.0527 5.46067 20.698 5.246C20.3433 5.022 19.9327 4.91 19.466 4.91C18.9993 4.91 18.5887 5.022 18.234 5.246C17.8793 5.46067 17.5993 5.764 17.394 6.156C17.1887 6.548 17.086 7.00533 17.086 7.528C17.086 8.05067 17.1887 8.508 17.394 8.9C17.5993 9.292 17.8793 9.6 18.234 9.824C18.5887 10.0387 18.9993 10.146 19.466 10.146ZM25.387 2.516C25.1537 2.516 24.9577 2.44133 24.799 2.292C24.6497 2.13333 24.575 1.93733 24.575 1.704C24.575 1.48 24.6497 1.29333 24.799 1.144C24.9577 0.994666 25.1537 0.92 25.387 0.92C25.611 0.92 25.8024 0.994666 25.961 1.144C26.1197 1.29333 26.199 1.48 26.199 1.704C26.199 1.93733 26.1197 2.13333 25.961 2.292C25.8024 2.44133 25.611 2.516 25.387 2.516ZM24.799 11V4.056H25.975V11H24.799ZM28.0226 11V4.056H29.0866L29.1566 5.302C29.3806 4.86333 29.7026 4.518 30.1226 4.266C30.5426 4.014 31.0186 3.888 31.5506 3.888C32.372 3.888 33.0253 4.14 33.5106 4.644C34.0053 5.13867 34.2526 5.904 34.2526 6.94V11H33.0766V7.066C33.0766 5.61933 32.4793 4.896 31.2846 4.896C30.6873 4.896 30.188 5.11533 29.7866 5.554C29.3946 5.98333 29.1986 6.59933 29.1986 7.402V11H28.0226ZM38.7784 8.816C38.3864 8.816 38.027 8.76467 37.7004 8.662L37.0004 9.32C37.103 9.39467 37.229 9.46 37.3784 9.516C37.537 9.56267 37.761 9.60933 38.0504 9.656C38.3397 9.69333 38.7457 9.73533 39.2684 9.782C40.2017 9.84733 40.869 10.062 41.2704 10.426C41.6717 10.79 41.8724 11.266 41.8724 11.854C41.8724 12.2553 41.7604 12.638 41.5364 13.002C41.3217 13.366 40.9857 13.6647 40.5284 13.898C40.0804 14.1313 39.5017 14.248 38.7924 14.248C38.167 14.248 37.6117 14.164 37.1264 13.996C36.641 13.8373 36.263 13.59 35.9924 13.254C35.7217 12.9273 35.5864 12.512 35.5864 12.008C35.5864 11.7467 35.6564 11.462 35.7964 11.154C35.9364 10.8553 36.1977 10.5707 36.5804 10.3C36.375 10.216 36.1977 10.1273 36.0484 10.034C35.9084 9.93133 35.7777 9.81933 35.6564 9.698V9.376L36.8464 8.2C36.2957 7.73333 36.0204 7.11733 36.0204 6.352C36.0204 5.89467 36.1277 5.47933 36.3424 5.106C36.557 4.73267 36.8697 4.43867 37.2804 4.224C37.691 4 38.1904 3.888 38.7784 3.888C39.1797 3.888 39.5437 3.944 39.8704 4.056H42.4324V4.938L41.1304 4.994C41.401 5.386 41.5364 5.83867 41.5364 6.352C41.5364 6.80933 41.4244 7.22467 41.2004 7.598C40.9857 7.97133 40.673 8.27 40.2624 8.494C39.861 8.70867 39.3664 8.816 38.7784 8.816ZM38.7784 7.85C39.273 7.85 39.665 7.724 39.9544 7.472C40.253 7.21067 40.4024 6.83733 40.4024 6.352C40.4024 5.876 40.253 5.512 39.9544 5.26C39.665 4.99867 39.273 4.868 38.7784 4.868C38.2744 4.868 37.873 4.99867 37.5744 5.26C37.285 5.512 37.1404 5.876 37.1404 6.352C37.1404 6.83733 37.285 7.21067 37.5744 7.472C37.873 7.724 38.2744 7.85 38.7784 7.85ZM36.7344 11.896C36.7344 12.3627 36.9304 12.708 37.3224 12.932C37.7144 13.1653 38.2044 13.282 38.7924 13.282C39.371 13.282 39.833 13.156 40.1784 12.904C40.533 12.652 40.7104 12.316 40.7104 11.896C40.7104 11.5973 40.589 11.336 40.3464 11.112C40.1037 10.8973 39.6557 10.7713 39.0024 10.734C38.489 10.6967 38.0457 10.65 37.6724 10.594C37.2897 10.7993 37.0377 11.0187 36.9164 11.252C36.795 11.4947 36.7344 11.7093 36.7344 11.896ZM44.165 11.07C43.9316 11.07 43.7356 10.9953 43.577 10.846C43.4276 10.6873 43.353 10.496 43.353 10.272C43.353 10.048 43.4276 9.86133 43.577 9.712C43.7356 9.55333 43.9316 9.474 44.165 9.474C44.389 9.474 44.5756 9.55333 44.725 9.712C44.8836 9.86133 44.963 10.048 44.963 10.272C44.963 10.496 44.8836 10.6873 44.725 10.846C44.5756 10.9953 44.389 11.07 44.165 11.07ZM46.8993 11.07C46.666 11.07 46.47 10.9953 46.3113 10.846C46.162 10.6873 46.0873 10.496 46.0873 10.272C46.0873 10.048 46.162 9.86133 46.3113 9.712C46.47 9.55333 46.666 9.474 46.8993 9.474C47.1233 9.474 47.31 9.55333 47.4593 9.712C47.618 9.86133 47.6973 10.048 47.6973 10.272C47.6973 10.496 47.618 10.6873 47.4593 10.846C47.31 10.9953 47.1233 11.07 46.8993 11.07ZM49.6337 11.07C49.4004 11.07 49.2044 10.9953 49.0457 10.846C48.8964 10.6873 48.8217 10.496 48.8217 10.272C48.8217 10.048 48.8964 9.86133 49.0457 9.712C49.2044 9.55333 49.4004 9.474 49.6337 9.474C49.8577 9.474 50.0444 9.55333 50.1937 9.712C50.3524 9.86133 50.4317 10.048 50.4317 10.272C50.4317 10.496 50.3524 10.6873 50.1937 10.846C50.0444 10.9953 49.8577 11.07 49.6337 11.07Z" fill="#258C60"/>
</svg>
